<svg width="107" height="31" viewBox="0 0 107 31" xmlns="http://www.w3.org/2000/svg">
<path d="M15.7092 0.0134047C16.1294 -0.0348899 16.6161 0.0590403 17.0207 0.18235C17.9364 0.461283 18.6807 1.05818 19.1223 1.91087C19.5811 2.7849 19.669 3.80719 19.3664 4.7468C18.9821 5.90572 18.1575 6.48855 17.1282 7.02415L17.1399 10.404C17.8754 10.6283 18.5912 10.8822 19.259 11.2693C20.794 12.1591 21.8441 13.6597 22.2844 15.3669C22.7498 17.1573 22.4855 19.0602 21.5491 20.656C20.6901 22.1024 19.3205 23.1706 17.6809 23.5798C15.5389 24.1151 13.7221 23.5357 11.8811 22.4411C11.0674 23.3111 10.2634 24.1907 9.46995 25.0798C9.82473 25.9167 9.94252 26.7951 9.70726 27.6843C9.47733 28.5536 8.86824 29.2986 8.0891 29.739C7.21599 30.2331 6.22112 30.3225 5.2639 30.0486C4.31392 29.7767 3.51531 29.1887 3.05101 28.3044C2.594 27.435 2.5555 26.4162 2.85179 25.488C3.18883 24.4333 3.87506 23.7836 4.84007 23.3015C5.87898 22.8951 6.73805 23.0289 7.75218 23.3943C8.59652 22.5057 9.39132 21.5719 10.2444 20.6911C9.30692 18.8526 9.00304 17.2864 9.49046 15.2605C8.42918 14.765 7.4059 14.1884 6.34398 13.6921C5.7765 14.2828 5.08238 14.6879 4.26781 14.8249C3.2965 14.9883 2.27227 14.7233 1.47386 14.1531C0.682678 13.5799 0.162201 12.7056 0.0344077 11.737C-0.0966481 10.7979 0.150777 9.76335 0.752181 9.02219C1.37245 8.2577 2.33486 7.79588 3.30687 7.69407C4.26182 7.60106 5.21459 7.89267 5.95433 8.50364C6.90021 9.29588 7.17362 10.2811 7.28831 11.4548C8.29486 12.0719 9.44753 12.5474 10.4963 13.0984C11.861 11.485 12.8587 10.9762 14.8479 10.363L14.8489 7.00852C14.4929 6.86604 14.1376 6.6926 13.8274 6.46458C13.0426 5.88402 12.5269 5.00958 12.3996 4.04173C12.2821 3.07887 12.5545 2.10877 13.1555 1.34739C13.8124 0.523332 14.6906 0.148203 15.7092 0.0134047ZM20.095 16.6999C19.8926 14.3923 17.8645 12.6811 15.5559 12.8689C13.2268 13.0586 11.4973 15.1077 11.7014 17.4353C11.9056 19.7638 13.9655 21.481 16.2922 21.2624C18.5982 21.0451 20.2972 19.0072 20.095 16.6999Z"/>
<path d="M98.7354 11.459C99.4214 11.4599 100.107 11.4688 100.793 11.4863L100.789 15.1123C101.317 14.7014 101.893 14.3949 102.562 14.2949C103.467 14.1581 104.388 14.3926 105.117 14.9443C105.997 15.6097 106.459 16.7294 106.593 17.7998C106.763 19.1577 106.444 20.4634 105.605 21.5459C105.05 22.0824 104.382 22.4579 103.613 22.584C102.484 22.7695 101.59 22.3746 100.709 21.7178L100.705 22.5098L98.7363 22.5059L98.7354 11.459ZM102.262 16.21C101.65 16.4131 101.225 16.7033 100.927 17.292C100.595 17.9455 100.573 18.7535 100.831 19.4346C101.029 19.9561 101.398 20.4075 101.913 20.6396C102.287 20.8089 102.64 20.8141 103.042 20.79C103.681 20.5486 104.111 20.2389 104.399 19.5996C104.701 18.932 104.696 18.127 104.41 17.4551C104.19 16.9383 103.799 16.522 103.271 16.3174C102.941 16.19 102.609 16.1732 102.262 16.21Z"/>
<path d="M39.7998 11.438C41.0067 15.158 42.5514 18.7769 43.7285 22.5073L41.5039 22.5093C41.2432 21.7128 40.9916 20.812 40.5938 20.0757C40.3338 19.9646 40.026 20.0018 39.748 20.0054C38.6752 20.016 37.602 20.013 36.5293 19.9946C36.1925 20.8165 35.921 21.6616 35.6543 22.5083L33.3887 22.5063C34.5719 18.793 35.9825 15.1271 37.2598 11.4429C38.1047 11.4612 38.9544 11.4414 39.7998 11.438ZM38.5312 14.188C38.0628 15.5195 37.626 16.8693 37.1133 18.1841L38.7422 18.1831L40.0078 18.1694C39.8301 17.669 38.7969 14.4099 38.5312 14.188Z"/>
<path d="M86.7002 11.4619L88.8277 11.4747C88.7987 14.0392 88.8214 16.6073 88.8207 19.1717C88.82 20.2301 88.9276 21.387 88.8086 22.4313L88.6918 22.5113H86.6981L86.6938 17.7755C85.1002 17.7309 83.4944 17.7706 81.8993 17.7727L81.9 22.5134L79.7598 22.5092L79.7683 11.4649L81.9 11.4698L81.9014 15.9857H86.7031L86.7002 11.4619Z"/>
<path d="M90.108 14.5234C90.8138 14.5436 91.5218 14.5362 92.2277 14.5401C92.2192 15.6688 92.0408 18.7868 92.3141 19.7199C92.4217 20.088 92.6369 20.4251 92.9852 20.6042C93.5092 20.8732 94.0416 20.7175 94.5619 20.5348C94.7927 20.2771 94.991 20.0357 95.105 19.7029C95.4788 18.6147 95.2791 15.8217 95.2735 14.5271C95.9461 14.5451 96.6208 14.531 97.2934 14.5275C97.2778 15.3028 97.2905 16.0808 97.2891 16.8568L97.2998 22.508C96.6385 22.5179 95.9772 22.5129 95.3167 22.4931L95.2558 22.4216C95.2657 22.2538 95.2678 22.1172 95.2381 21.9501C94.6186 22.2184 94.0671 22.6255 93.3626 22.6397C92.5456 22.6559 91.6592 22.4025 91.0729 21.8148C90.6283 21.3702 90.3572 20.772 90.2177 20.1652C89.9175 18.8597 90.0945 15.9682 90.108 14.5234Z"/>
<path d="M61.514 14.3008C62.5689 14.2182 63.6684 14.2927 64.5208 15.0033C65.1184 15.5009 65.3117 16.0984 65.3761 16.8411L63.4695 16.839C63.3597 16.6351 63.25 16.3986 63.0779 16.2393C62.8032 15.9858 62.4054 15.8541 62.0337 15.874C61.7448 15.8895 61.3759 16.0049 61.1961 16.2492C61.0871 16.3979 61.0269 16.5508 61.0687 16.7363C61.2853 17.714 63.7711 17.593 64.5626 18.1105C65.066 18.4404 65.4526 19.0316 65.5644 19.6214C65.6763 20.2246 65.5326 20.8476 65.1687 21.3411C64.5612 22.1786 63.6252 22.4795 62.651 22.6289C61.749 22.6835 60.7033 22.4413 59.9812 21.8919C59.3043 21.3765 59.0608 20.7443 58.9688 19.9301C59.6109 19.9315 60.2538 19.9251 60.8959 19.9124C60.9334 20.0334 60.9752 20.1502 61.0361 20.2621C61.3158 20.7782 61.8744 20.8929 62.3919 21.0452C62.7339 20.9666 63.1969 20.8788 63.4397 20.6027C63.5863 20.4356 63.6373 20.146 63.5757 19.9336C63.3385 19.1166 60.9568 19.0203 60.1306 18.512C59.6413 18.2103 59.2817 17.7714 59.1514 17.205C59.0339 16.6917 59.0785 16.1147 59.3674 15.6651C59.8884 14.8512 60.6078 14.517 61.514 14.3008Z"/>
<path d="M74.3436 14.2986C74.9439 14.2499 75.5323 14.2532 76.1178 14.4116C76.7932 14.5944 77.5104 14.9716 77.8517 15.6113C78.0159 15.9179 78.1419 16.4694 78.0315 16.81C77.4842 16.9282 76.8159 16.8482 76.2537 16.8418C76.1709 16.5636 76.1008 16.349 75.8749 16.1565C75.5889 15.9172 75.2172 15.8039 74.8462 15.8442C74.556 15.874 74.1828 16.017 74.0207 16.2768C73.9237 16.4319 73.8841 16.5912 73.945 16.7696C74.2961 17.804 76.401 17.5583 77.2194 18.0256C77.7405 18.3236 78.1766 18.8476 78.3246 19.4338C78.4839 20.0632 78.3784 20.7627 78.0152 21.3043C77.4729 22.1128 76.6113 22.4173 75.7022 22.5936C74.8094 22.704 73.7757 22.5143 73.0295 21.9995C72.2635 21.4714 72.0334 20.8087 71.8613 19.9428L73.7729 19.9287C73.889 20.2211 73.9945 20.449 74.2423 20.6515C74.5722 20.922 74.9638 21.0445 75.3893 20.9878C75.7192 20.9439 76.0442 20.7924 76.2417 20.5163C76.3705 20.335 76.435 20.1149 76.3734 19.8947C76.1341 19.0444 74.0235 19.0975 73.186 18.6465C72.6203 18.3413 72.1721 17.8344 71.993 17.2121C71.8408 16.6853 71.9045 16.1366 72.1828 15.663C72.6451 14.8785 73.4933 14.4947 74.3436 14.2986Z"/>
<path d="M50.8137 12.3306C51.448 12.3524 52.0873 12.3389 52.7224 12.3417C52.7153 13.0582 52.7259 13.7749 52.7536 14.4911L54.6368 14.4922L54.6326 16.1336L52.8392 16.1329C52.8399 17.1659 52.6035 19.8308 53.0778 20.6287C53.4481 20.9204 54.1873 20.8113 54.6368 20.8064L54.6304 22.1664C54.6347 22.3066 54.634 22.3774 54.5625 22.4999C54.3119 22.6203 54.0549 22.6472 53.778 22.6493C53.0495 22.6557 52.0434 22.524 51.5195 21.9781C50.4675 20.8828 50.8037 17.6601 50.8087 16.1315L49.5935 16.1336L49.5971 14.4885L50.8073 14.4967L50.8137 12.3306Z"/>
<path d="M67.1844 12.3218L69.0577 12.3325C69.0435 13.0503 69.0733 13.7715 69.0867 14.4893L71.0004 14.4855L70.9976 16.1346L69.1965 16.1332C69.2184 17.1166 68.9777 19.8629 69.423 20.6063C69.9016 20.8923 70.5013 20.8159 71.0394 20.8144C71.033 21.2881 71.0422 21.7632 71.0443 22.2375L71.0217 22.4173C70.8362 22.6135 70.5509 22.605 70.2981 22.6113C69.5285 22.6297 68.4658 22.508 67.9079 21.9239C66.8665 20.8336 67.1907 17.6561 67.1999 16.1325L65.9185 16.1332C65.9022 15.5873 65.9085 15.0397 65.9043 14.4938L67.1808 14.5004L67.1844 12.3218Z"/>
<path d="M26.7686 11.0947C26.8671 11.0898 26.9627 11.0884 27.0607 11.1026C27.3669 11.147 27.6686 11.2949 27.8372 11.5637C28.0162 11.849 28.0407 12.2288 28.0652 12.5592C28.1866 14.1945 28.0964 15.8958 28.0959 17.5369C28.0956 18.8771 28.2441 20.6946 27.9953 21.9852C27.917 22.3909 27.6479 22.5849 27.3258 22.8044C27.2031 22.8192 27.0747 22.8362 26.9509 22.8292C26.6744 22.8136 26.4126 22.6904 26.2338 22.4794C26.057 22.2706 26.0621 21.8514 26.0464 21.5895C25.9341 19.7083 26.0291 17.767 26.0308 15.8802C26.0318 14.808 25.8844 12.7555 26.1098 11.7987C26.1905 11.4564 26.499 11.277 26.7686 11.0947Z"/>
<path d="M48.492 14.4626L48.7612 14.4595C49.0803 14.8162 48.9218 15.9463 48.9116 16.4142C48.2375 16.4072 47.5999 16.3803 47.0717 16.8702C46.0807 17.7892 46.4148 21.1571 46.405 22.5086C45.8738 22.5037 44.839 22.6977 44.4332 22.36L44.412 22.0251C44.4217 19.5202 44.3587 17.0175 44.3747 14.513C45.0178 14.533 45.663 14.5194 46.3064 14.5159L46.2837 15.622C46.4031 15.4507 46.5216 15.2673 46.6601 15.1111C47.1476 14.5611 47.8089 14.5114 48.492 14.4626Z"/>
<path d="M55.8075 14.4956L57.8281 14.4964L57.833 22.5128L55.7891 22.5099L55.8075 14.4956Z"/>
<path d="M23.9465 13.7217C24.2782 13.7829 24.5718 13.9075 24.7651 14.1957C25.0633 14.6402 25.0714 18.9956 24.922 19.6172C24.8403 19.957 24.5463 20.1227 24.2675 20.2863C23.9483 20.2671 23.5287 20.2388 23.3155 19.962C22.9982 19.5507 23.0245 14.9217 23.2051 14.3412C23.31 14.004 23.6568 13.8614 23.9465 13.7217Z"/>
<path d="M56.6844 11.1928C57.2848 11.1222 57.8328 11.5418 57.9206 12.1398C58.0091 12.7379 57.6055 13.2976 57.0108 13.4034C56.6094 13.4746 56.2016 13.3222 55.946 13.0055C55.6897 12.6889 55.6267 12.258 55.7803 11.881C55.9339 11.504 56.2801 11.2403 56.6844 11.1928Z"/>
</svg>
