<svg aria-hidden="true" style="position: absolute; width: 0; height: 0; overflow: hidden;" version="1.1" xmlns="http://www.w3.org/2000/svg" xmlns:xlink="http://www.w3.org/1999/xlink">
<defs>
<symbol id="error-circle" viewBox="0 0 32 32">
<path d="M15.938 2.667c-7.317 0-13.271 5.981-13.271 13.333s5.981 13.333 13.333 13.333c7.352 0 13.333-5.981 13.333-13.333s-6.009-13.333-13.396-13.333zM16.001 26.667c-5.881 0-10.667-4.785-10.667-10.667s4.756-10.667 10.604-10.667c5.917 0 10.729 4.785 10.729 10.667s-4.785 10.667-10.667 10.667z"></path>
<path d="M14.667 9.333h2.667v9.333h-2.667v-9.333zM14.667 20h2.667v2.667h-2.667v-2.667z"></path>
</symbol>
<symbol id="logo-icon" viewBox="0 0 32 32">
<path d="M17.501 3.14c0.384-0.041 0.83 0.039 1.2 0.144 0.838 0.238 1.518 0.747 1.922 1.474 0.42 0.745 0.5 1.616 0.223 2.417-0.352 0.988-1.105 1.484-2.047 1.941l0.011 2.881c0.673 0.191 1.328 0.408 1.939 0.738 1.404 0.758 2.365 2.037 2.768 3.493 0.426 1.526 0.184 3.148-0.673 4.508-0.786 1.233-2.039 2.143-3.539 2.492-1.959 0.456-3.621-0.038-5.305-0.971-0.744 0.742-1.48 1.492-2.206 2.25 0.325 0.713 0.432 1.462 0.217 2.22-0.21 0.741-0.768 1.376-1.48 1.751-0.799 0.421-1.709 0.498-2.584 0.264-0.869-0.232-1.599-0.733-2.024-1.487-0.418-0.741-0.453-1.609-0.182-2.4 0.308-0.899 0.937-1.453 1.82-1.864 0.95-0.346 1.736-0.232 2.664 0.079 0.772-0.757 1.5-1.553 2.28-2.304-0.858-1.567-1.135-2.902-0.689-4.629-0.971-0.422-1.907-0.914-2.879-1.337-0.519 0.504-1.154 0.849-1.899 0.966-0.889 0.139-1.826-0.086-2.556-0.573-0.724-0.489-1.2-1.233-1.317-2.059-0.12-0.801 0.106-1.683 0.656-2.315 0.567-0.652 1.448-1.044 2.338-1.131 0.874-0.079 1.745 0.169 2.422 0.69 0.865 0.675 1.115 1.514 1.22 2.515 0.921 0.526 1.976 0.932 2.935 1.402 1.248-1.375 2.16-1.809 3.98-2.332l0.002-2.859c-0.326-0.121-0.651-0.269-0.935-0.464-0.718-0.495-1.189-1.24-1.305-2.065-0.108-0.821 0.141-1.648 0.691-2.297 0.601-0.702 1.404-1.022 2.336-1.137zM21.512 17.362c-0.185-1.967-2.039-3.425-4.151-3.265-2.131 0.161-3.714 1.908-3.527 3.892s2.072 3.448 4.2 3.262c2.109-0.185 3.663-1.922 3.478-3.889z"></path>
<path d="M27.617 12.586c0.090-0.004 0.178-0.005 0.267 0.007 0.28 0.038 0.556 0.164 0.71 0.393 0.164 0.243 0.186 0.567 0.208 0.849 0.111 1.394 0.029 2.844 0.028 4.243-0 1.142 0.136 2.691-0.092 3.792-0.072 0.346-0.318 0.511-0.612 0.698-0.112 0.013-0.23 0.027-0.343 0.021-0.253-0.013-0.492-0.118-0.656-0.298-0.162-0.178-0.157-0.535-0.171-0.759-0.103-1.603-0.016-3.258-0.014-4.866 0.001-0.914-0.134-2.663 0.072-3.479 0.074-0.292 0.356-0.445 0.603-0.6z"></path>
<path d="M25.035 14.825c0.304 0.052 0.572 0.158 0.749 0.404 0.273 0.379 0.28 4.091 0.144 4.621-0.075 0.29-0.344 0.431-0.599 0.57-0.292-0.016-0.676-0.040-0.871-0.276-0.29-0.351-0.266-4.296-0.101-4.791 0.096-0.287 0.413-0.409 0.678-0.528z"></path>
</symbol>
<symbol id="logo" viewBox="0 0 112 32">
<path d="M16.348 0.013c0.437-0.050 0.944 0.048 1.365 0.176 0.953 0.29 1.727 0.912 2.186 1.8 0.477 0.91 0.57 1.973 0.255 2.951-0.4 1.206-1.257 1.812-2.328 2.369l0.012 3.518c0.765 0.233 1.51 0.498 2.205 0.901 1.598 0.926 2.691 2.488 3.149 4.264 0.484 1.863 0.209 3.843-0.766 5.504-0.894 1.505-2.319 2.617-4.025 3.043-2.229 0.557-4.119-0.046-6.035-1.185-0.847 0.905-1.683 1.821-2.509 2.746 0.369 0.871 0.491 1.784 0.246 2.71-0.239 0.905-0.874 1.68-1.684 2.139-0.909 0.514-1.944 0.607-2.94 0.322-0.989-0.283-1.819-0.895-2.303-1.816-0.475-0.905-0.516-1.965-0.207-2.931 0.351-1.098 1.066-1.774 2.070-2.276 1.081-0.423 1.974-0.283 3.030 0.097 0.879-0.925 1.706-1.896 2.594-2.813-0.976-1.913-1.292-3.543-0.784-5.652-1.104-0.516-2.169-1.116-3.274-1.633-0.591 0.615-1.313 1.037-2.161 1.179-1.011 0.17-2.077-0.106-2.908-0.7-0.823-0.596-1.365-1.505-1.498-2.513-0.137-0.977 0.12-2.055 0.746-2.826 0.645-0.796 1.648-1.275 2.659-1.381 0.994-0.097 1.986 0.206 2.755 0.842 0.984 0.824 1.268 1.849 1.387 3.070 1.048 0.642 2.248 1.138 3.339 1.711 1.42-1.679 2.458-2.208 4.528-2.846l0.001-3.491c-0.37-0.148-0.74-0.329-1.063-0.566-0.817-0.604-1.353-1.514-1.486-2.521-0.122-1.002 0.16-2.012 0.786-2.804 0.684-0.858 1.598-1.248 2.658-1.389zM20.912 17.378c-0.211-2.401-2.32-4.182-4.723-3.987-2.424 0.197-4.224 2.33-4.011 4.752s2.356 4.21 4.777 3.982c2.4-0.226 4.167-2.347 3.957-4.748z"></path>
<path d="M102.748 11.925c0.713 0.001 1.427 0.011 2.141 0.029l-0.004 3.773c0.549-0.428 1.149-0.746 1.846-0.85 0.941-0.142 1.899 0.101 2.658 0.675 0.916 0.692 1.397 1.858 1.536 2.972 0.177 1.413-0.155 2.772-1.027 3.899-0.578 0.558-1.275 0.949-2.075 1.080-1.175 0.193-2.105-0.218-3.022-0.902l-0.004 0.824-2.049-0.004v-11.496zM106.418 16.869c-0.637 0.211-1.079 0.514-1.39 1.126-0.344 0.68-0.368 1.52-0.1 2.229 0.206 0.543 0.591 1.013 1.127 1.255 0.389 0.176 0.756 0.181 1.175 0.156 0.664-0.251 1.112-0.573 1.413-1.239 0.314-0.695 0.308-1.533 0.010-2.232-0.229-0.538-0.636-0.971-1.186-1.184-0.343-0.133-0.688-0.15-1.049-0.112z"></path>
<path d="M41.419 11.903c1.256 3.871 2.863 7.637 4.088 11.519l-2.315 0.002c-0.271-0.829-0.533-1.766-0.947-2.533-0.271-0.116-0.591-0.077-0.88-0.073-1.117 0.011-2.233 0.008-3.35-0.011-0.351 0.855-0.632 1.736-0.909 2.617l-2.358-0.002c1.231-3.864 2.7-7.68 4.029-11.514 0.879 0.019 1.764-0.001 2.643-0.005zM40.099 14.765c-0.487 1.385-0.941 2.79-1.475 4.158l1.695-0.001 1.316-0.015c-0.185-0.521-1.26-3.913-1.537-4.143z"></path>
<path d="M90.226 11.928l2.213 0.013c-0.030 2.669-0.006 5.341-0.007 8.010-0.001 1.102 0.111 2.305-0.013 3.392l-0.122 0.083h-2.075l-0.005-4.928c-1.659-0.046-3.33-0.005-4.99-0.003l0.001 4.933-2.227-0.004 0.009-11.493 2.218 0.005 0.002 4.699h4.997l-0.002-4.708z"></path>
<path d="M93.771 15.114c0.734 0.021 1.471 0.013 2.206 0.017-0.009 1.175-0.194 4.419 0.090 5.39 0.112 0.383 0.336 0.734 0.699 0.92 0.546 0.28 1.1 0.118 1.641-0.072 0.24-0.268 0.446-0.519 0.565-0.866 0.389-1.132 0.181-4.039 0.175-5.386 0.7 0.019 1.403 0.004 2.103 0-0.016 0.807-0.003 1.616-0.005 2.424l0.011 5.881c-0.688 0.010-1.376 0.005-2.064-0.015l-0.063-0.074c0.010-0.175 0.013-0.317-0.019-0.491-0.645 0.279-1.218 0.703-1.952 0.718-0.85 0.017-1.772-0.247-2.382-0.858-0.463-0.463-0.745-1.085-0.891-1.717-0.312-1.359-0.128-4.368-0.114-5.871z"></path>
<path d="M64.015 14.882c1.098-0.086 2.242-0.008 3.129 0.731 0.622 0.518 0.823 1.14 0.89 1.912l-1.984-0.002c-0.114-0.212-0.228-0.458-0.407-0.624-0.286-0.264-0.7-0.401-1.087-0.38-0.301 0.016-0.684 0.136-0.872 0.391-0.113 0.155-0.176 0.314-0.133 0.507 0.225 1.018 2.812 0.891 3.636 1.43 0.524 0.343 0.926 0.959 1.043 1.572 0.116 0.628-0.033 1.276-0.412 1.79-0.632 0.872-1.606 1.185-2.62 1.34-0.939 0.057-2.027-0.195-2.778-0.767-0.704-0.536-0.958-1.194-1.054-2.042 0.668 0.001 1.337-0.005 2.005-0.018 0.039 0.126 0.083 0.247 0.146 0.364 0.291 0.537 0.872 0.656 1.411 0.815 0.356-0.082 0.838-0.173 1.090-0.46 0.153-0.174 0.206-0.475 0.141-0.696-0.247-0.85-2.725-0.95-3.585-1.479-0.509-0.314-0.883-0.771-1.019-1.36-0.122-0.534-0.076-1.135 0.225-1.602 0.542-0.847 1.291-1.195 2.234-1.42z"></path>
<path d="M77.367 14.88c0.625-0.051 1.237-0.047 1.847 0.118 0.702 0.19 1.449 0.583 1.805 1.249 0.171 0.319 0.302 0.893 0.187 1.247-0.569 0.123-1.265 0.040-1.85 0.033-0.087-0.29-0.159-0.513-0.394-0.713-0.297-0.249-0.684-0.367-1.071-0.325-0.302 0.031-0.69 0.18-0.859 0.45-0.101 0.161-0.142 0.327-0.079 0.513 0.365 1.076 2.556 0.821 3.408 1.307 0.542 0.31 0.996 0.855 1.15 1.465 0.166 0.655 0.056 1.383-0.322 1.947-0.565 0.841-1.461 1.158-2.407 1.342-0.929 0.115-2.005-0.083-2.782-0.618-0.797-0.55-1.037-1.239-1.216-2.14l1.989-0.015c0.121 0.304 0.231 0.541 0.488 0.752 0.343 0.281 0.751 0.409 1.193 0.35 0.343-0.046 0.682-0.203 0.887-0.491 0.134-0.189 0.201-0.418 0.137-0.647-0.249-0.885-2.445-0.83-3.317-1.299-0.589-0.317-1.055-0.845-1.241-1.493-0.158-0.548-0.092-1.119 0.197-1.612 0.481-0.816 1.364-1.216 2.249-1.42z"></path>
<path d="M52.88 12.832c0.66 0.023 1.325 0.009 1.986 0.012-0.007 0.746 0.004 1.492 0.032 2.237l1.96 0.001-0.004 1.708-1.866-0.001c0.001 1.075-0.245 3.848 0.248 4.679 0.385 0.304 1.154 0.19 1.622 0.185l-0.007 1.415c0.004 0.146 0.004 0.22-0.071 0.347-0.261 0.125-0.528 0.153-0.816 0.155-0.758 0.007-1.805-0.13-2.35-0.698-1.095-1.14-0.745-4.494-0.74-6.084l-1.265 0.002 0.004-1.712 1.259 0.009 0.007-2.254z"></path>
<path d="M69.917 12.823l1.95 0.011c-0.015 0.747 0.016 1.497 0.030 2.244l1.992-0.004-0.003 1.716-1.874-0.001c0.023 1.023-0.228 3.881 0.236 4.655 0.498 0.298 1.122 0.218 1.682 0.217-0.007 0.493 0.003 0.987 0.005 1.481l-0.024 0.187c-0.193 0.204-0.49 0.195-0.753 0.202-0.801 0.019-1.907-0.108-2.487-0.715-1.084-1.135-0.746-4.441-0.737-6.027l-1.334 0.001c-0.017-0.568-0.010-1.138-0.015-1.706l1.328 0.007 0.004-2.267z"></path>
<path d="M27.858 11.546c0.102-0.005 0.202-0.007 0.304 0.008 0.319 0.046 0.633 0.2 0.808 0.48 0.186 0.297 0.212 0.692 0.237 1.036 0.126 1.702 0.033 3.472 0.032 5.18-0 1.395 0.154 3.286-0.105 4.629-0.081 0.422-0.362 0.624-0.697 0.852-0.128 0.015-0.261 0.033-0.39 0.026-0.288-0.016-0.56-0.144-0.746-0.364-0.184-0.217-0.179-0.654-0.195-0.926-0.117-1.958-0.018-3.978-0.016-5.941 0.001-1.116-0.152-3.252 0.082-4.247 0.084-0.356 0.405-0.543 0.686-0.733z"></path>
<path d="M50.462 15.051l0.28-0.003c0.332 0.371 0.167 1.547 0.157 2.034-0.702-0.007-1.365-0.035-1.915 0.474-1.031 0.956-0.684 4.461-0.694 5.868-0.553-0.005-1.63 0.197-2.052-0.155l-0.022-0.349c0.010-2.607-0.056-5.211-0.039-7.817 0.669 0.021 1.341 0.007 2.010 0.003l-0.024 1.151c0.124-0.178 0.248-0.369 0.392-0.532 0.507-0.572 1.195-0.624 1.906-0.675z"></path>
<path d="M58.076 15.085l2.103 0.001 0.005 8.342-2.127-0.003 0.019-8.34z"></path>
<path d="M24.92 14.28c0.345 0.064 0.651 0.193 0.852 0.493 0.31 0.463 0.319 4.995 0.163 5.642-0.085 0.354-0.391 0.526-0.681 0.696-0.332-0.020-0.769-0.049-0.991-0.337-0.33-0.428-0.303-5.245-0.115-5.849 0.109-0.351 0.47-0.499 0.771-0.645z"></path>
<path d="M58.99 11.648c0.625-0.074 1.195 0.363 1.286 0.985s-0.328 1.205-0.947 1.315c-0.418 0.074-0.842-0.085-1.108-0.414s-0.332-0.778-0.172-1.17c0.16-0.392 0.52-0.667 0.941-0.716z"></path>
</symbol>
<symbol id="bell" viewBox="0 0 32 32">
<path d="M16 32c1.061 0 2.078-0.421 2.828-1.172s1.172-1.768 1.172-2.828h-8c0 1.061 0.421 2.078 1.172 2.828s1.768 1.172 2.828 1.172zM16 3.836l-1.594 0.322c-1.808 0.368-3.433 1.35-4.601 2.779s-1.805 3.218-1.805 5.063c0 1.256-0.268 4.394-0.918 7.484-0.32 1.534-0.752 3.132-1.326 4.516h20.488c-0.574-1.384-1.004-2.98-1.326-4.516-0.65-3.090-0.918-6.228-0.918-7.484-0.001-1.845-0.639-3.633-1.806-5.062s-2.792-2.41-4.6-2.778l-1.594-0.324zM28.44 24c0.446 0.894 0.962 1.602 1.56 2h-28c0.598-0.398 1.114-1.106 1.56-2 1.8-3.6 2.44-10.24 2.44-12 0-4.84 3.44-8.88 8.010-9.802-0.028-0.278 0.003-0.559 0.090-0.824s0.229-0.51 0.417-0.717c0.188-0.207 0.416-0.373 0.672-0.486s0.532-0.172 0.811-0.172c0.279 0 0.556 0.059 0.811 0.172s0.484 0.279 0.672 0.486c0.187 0.207 0.329 0.452 0.417 0.717s0.118 0.546 0.090 0.824c2.261 0.46 4.293 1.687 5.753 3.473s2.257 4.022 2.257 6.329c0 1.76 0.64 8.4 2.44 12z"></path>
</symbol>
<symbol id="caution" viewBox="0 0 32 32">
<path d="M15.876 4.032c0.039-0.021 0.083-0.033 0.128-0.032s0.087 0.011 0.126 0.032c0.046 0.027 0.083 0.067 0.108 0.114l13.714 23.334c0.072 0.12 0.070 0.248 0.004 0.366-0.025 0.048-0.062 0.090-0.108 0.12-0.040 0.024-0.086 0.036-0.132 0.034h-27.424c-0.046 0.002-0.092-0.010-0.132-0.034-0.046-0.030-0.083-0.072-0.108-0.12-0.033-0.055-0.050-0.119-0.049-0.183s0.019-0.128 0.053-0.183l13.712-23.334c0.025-0.047 0.062-0.087 0.108-0.114zM17.964 3.132c-0.198-0.345-0.483-0.631-0.827-0.831s-0.735-0.304-1.133-0.304c-0.398 0-0.788 0.105-1.132 0.304s-0.63 0.486-0.828 0.831l-13.714 23.334c-0.914 1.556 0.182 3.534 1.96 3.534h27.426c1.778 0 2.876-1.98 1.96-3.534l-13.712-23.334z"></path>
<path d="M14.004 24c0-0.263 0.052-0.523 0.152-0.765s0.248-0.463 0.434-0.649 0.406-0.333 0.649-0.434c0.243-0.101 0.503-0.152 0.765-0.152s0.523 0.052 0.765 0.152 0.463 0.248 0.649 0.434c0.186 0.186 0.333 0.406 0.434 0.649s0.152 0.503 0.152 0.765c0 0.531-0.211 1.039-0.586 1.414s-0.884 0.586-1.414 0.586c-0.531 0-1.039-0.211-1.414-0.586s-0.586-0.884-0.586-1.414zM14.2 11.99c-0.027-0.252 0-0.507 0.078-0.749s0.206-0.463 0.376-0.652 0.377-0.339 0.609-0.443c0.232-0.103 0.483-0.157 0.736-0.157s0.505 0.053 0.736 0.157c0.232 0.103 0.439 0.254 0.609 0.443s0.298 0.411 0.376 0.652c0.078 0.241 0.105 0.496 0.078 0.749l-0.7 7.014c-0.024 0.276-0.15 0.532-0.353 0.719s-0.47 0.291-0.747 0.291c-0.277 0-0.543-0.104-0.747-0.291s-0.33-0.444-0.353-0.719l-0.7-7.014z"></path>
</symbol>
<symbol id="close" viewBox="0 0 32 32">
<path d="M4.292 5.708c-0.093-0.093-0.167-0.203-0.217-0.325s-0.076-0.252-0.076-0.383c0-0.131 0.026-0.262 0.076-0.383s0.124-0.232 0.217-0.325c0.093-0.093 0.203-0.167 0.325-0.217s0.252-0.076 0.383-0.076c0.131 0 0.262 0.026 0.383 0.076s0.232 0.124 0.325 0.217l10.292 10.294 10.292-10.294c0.093-0.093 0.203-0.167 0.325-0.217s0.252-0.076 0.383-0.076 0.262 0.026 0.383 0.076c0.121 0.050 0.232 0.124 0.325 0.217s0.167 0.203 0.217 0.325c0.050 0.121 0.076 0.252 0.076 0.383s-0.026 0.262-0.076 0.383c-0.050 0.121-0.124 0.232-0.217 0.325l-10.294 10.292 10.294 10.292c0.093 0.093 0.167 0.203 0.217 0.325s0.076 0.252 0.076 0.383c0 0.132-0.026 0.262-0.076 0.383s-0.124 0.232-0.217 0.325-0.203 0.167-0.325 0.217c-0.122 0.050-0.252 0.076-0.383 0.076s-0.262-0.026-0.383-0.076c-0.121-0.050-0.232-0.124-0.325-0.217l-10.292-10.294-10.292 10.294c-0.093 0.093-0.203 0.167-0.325 0.217s-0.252 0.076-0.383 0.076-0.262-0.026-0.383-0.076c-0.121-0.050-0.232-0.124-0.325-0.217s-0.167-0.203-0.217-0.325c-0.050-0.121-0.076-0.252-0.076-0.383s0.026-0.262 0.076-0.383c0.050-0.121 0.124-0.232 0.217-0.325l10.294-10.292-10.294-10.292z"></path>
</symbol>
<symbol id="error" viewBox="0 0 32 32">
<path d="M9.080 0.292c0.187-0.187 0.441-0.292 0.706-0.292h12.428c0.265 0 0.519 0.105 0.706 0.292l8.788 8.788c0.187 0.187 0.292 0.441 0.292 0.706v12.428c0 0.265-0.105 0.519-0.292 0.706l-8.788 8.788c-0.187 0.187-0.441 0.292-0.706 0.292h-12.428c-0.265 0-0.519-0.105-0.706-0.292l-8.788-8.788c-0.187-0.187-0.292-0.441-0.292-0.706v-12.428c0-0.265 0.105-0.519 0.292-0.706l8.788-8.788zM10.2 2l-8.2 8.2v11.6l8.2 8.2h11.6l8.2-8.2v-11.6l-8.2-8.2h-11.6z"></path>
<path d="M9.292 9.292c0.093-0.093 0.203-0.167 0.325-0.217s0.252-0.076 0.383-0.076c0.132 0 0.262 0.026 0.383 0.076s0.232 0.124 0.325 0.217l5.292 5.294 5.292-5.294c0.093-0.093 0.203-0.167 0.325-0.217s0.252-0.076 0.383-0.076c0.131 0 0.262 0.026 0.383 0.076s0.232 0.124 0.325 0.217c0.093 0.093 0.167 0.203 0.217 0.325s0.076 0.252 0.076 0.383-0.026 0.262-0.076 0.383c-0.050 0.121-0.124 0.232-0.217 0.325l-5.294 5.292 5.294 5.292c0.093 0.093 0.167 0.203 0.217 0.325s0.076 0.252 0.076 0.383-0.026 0.262-0.076 0.383c-0.050 0.121-0.124 0.232-0.217 0.325s-0.203 0.167-0.325 0.217c-0.121 0.050-0.252 0.076-0.383 0.076s-0.262-0.026-0.383-0.076c-0.121-0.050-0.232-0.124-0.325-0.217l-5.292-5.294-5.292 5.294c-0.093 0.093-0.203 0.167-0.325 0.217s-0.252 0.076-0.383 0.076-0.262-0.026-0.383-0.076c-0.121-0.050-0.232-0.124-0.325-0.217s-0.167-0.203-0.217-0.325c-0.050-0.121-0.076-0.252-0.076-0.383s0.026-0.262 0.076-0.383c0.050-0.121 0.124-0.232 0.217-0.325l5.294-5.292-5.294-5.292c-0.093-0.093-0.167-0.203-0.217-0.325s-0.076-0.252-0.076-0.383c0-0.132 0.026-0.262 0.076-0.383s0.124-0.232 0.217-0.325z"></path>
</symbol>
<symbol id="search" viewBox="0 0 32 32">
<path d="M13.333 24c2.367-0.001 4.665-0.793 6.529-2.251l5.861 5.861 1.885-1.885-5.861-5.861c1.459-1.864 2.251-4.163 2.252-6.531 0-5.881-4.785-10.667-10.667-10.667s-10.667 4.785-10.667 10.667c0 5.881 4.785 10.667 10.667 10.667zM13.333 5.333c4.412 0 8 3.588 8 8s-3.588 8-8 8c-4.412 0-8-3.588-8-8s3.588-8 8-8z"></path>
</symbol>
<symbol id="youtube" viewBox="0 0 32 32">
<path d="M28.791 9.604c-0.152-0.563-0.449-1.077-0.861-1.49s-0.925-0.711-1.489-0.864c-2.088-0.573-10.441-0.583-10.441-0.583s-8.352-0.009-10.441 0.539c-0.563 0.16-1.075 0.462-1.487 0.878s-0.711 0.929-0.867 1.493c-0.551 2.088-0.556 6.419-0.556 6.419s-0.005 4.352 0.541 6.419c0.307 1.143 1.207 2.045 2.351 2.353 2.109 0.573 10.44 0.583 10.44 0.583s8.353 0.009 10.441-0.537c0.563-0.153 1.077-0.45 1.49-0.862s0.712-0.925 0.866-1.488c0.552-2.087 0.556-6.416 0.556-6.416s0.027-4.353-0.543-6.441zM13.328 20.007l0.007-8 6.943 4.007-6.949 3.993z"></path>
</symbol>
<symbol id="facebook" viewBox="0 0 32 32">
<path d="M29.333 16.405c0-7.409-5.969-13.415-13.333-13.415s-13.333 6.006-13.333 13.415c0 6.696 4.876 12.245 11.25 13.252v-9.374h-3.385v-3.878h3.385v-2.955c0-3.362 1.991-5.219 5.036-5.219 1.459 0 2.985 0.262 2.985 0.262v3.301h-1.681c-1.656 0-2.173 1.034-2.173 2.095v2.516h3.698l-0.591 3.878h-3.107v9.374c6.374-1.006 11.25-6.556 11.25-13.252z"></path>
</symbol>
<symbol id="down-arrow" viewBox="0 0 32 32">
<path d="M24.943 16.943l-1.885-1.885-5.724 5.724v-12.781h-2.667v12.781l-5.724-5.724-1.885 1.885 8.943 8.943 8.943-8.943z"></path>
</symbol>
<symbol id="caret-right" viewBox="0 0 32 32">
<path d="M12 25.333l10.667-9.333-10.667-9.333v18.667z"></path>
</symbol>
<symbol id="left-arrow-btn" viewBox="0 0 32 32">
<path d="M16.943 23.057l-5.724-5.724h12.781v-2.667h-12.781l5.724-5.724-1.885-1.885-8.943 8.943 8.943 8.943 1.885-1.885z"></path>
</symbol>
<symbol id="right-arrow-btn" viewBox="0 0 32 32">
<path d="M15.057 23.057l1.885 1.885 8.943-8.943-8.943-8.943-1.885 1.885 5.724 5.724h-12.781v2.667h12.781l-5.724 5.724z"></path>
</symbol>
<symbol id="right-arrow" viewBox="0 0 32 32">
<path d="M7.381 29.181c0.216 0.112 0.458 0.164 0.701 0.149s0.477-0.096 0.677-0.234l17.333-12c0.177-0.123 0.322-0.287 0.422-0.477s0.152-0.403 0.152-0.619-0.052-0.428-0.152-0.619c-0.1-0.191-0.245-0.355-0.422-0.477l-17.333-12c-0.2-0.139-0.434-0.221-0.677-0.237s-0.486 0.036-0.702 0.149c-0.216 0.113-0.396 0.283-0.522 0.492s-0.192 0.448-0.191 0.691v24c-0 0.243 0.067 0.482 0.192 0.69s0.307 0.378 0.522 0.491zM9.333 6.545l13.657 9.455-13.657 9.455v-18.909z"></path>
</symbol>
<symbol  id="instagram" viewBox="0 0 32 32">
<path d="M31.969 9.408c-0.075-1.7-0.35-2.869-0.744-3.882-0.406-1.075-1.031-2.038-1.85-2.838-0.8-0.813-1.769-1.444-2.832-1.844-1.019-0.394-2.182-0.669-3.882-0.744-1.713-0.081-2.257-0.1-6.601-0.1s-4.888 0.019-6.595 0.094c-1.7 0.075-2.869 0.35-3.882 0.744-1.075 0.406-2.038 1.031-2.838 1.85-0.813 0.8-1.444 1.769-1.844 2.832-0.394 1.019-0.669 2.182-0.744 3.882-0.081 1.713-0.1 2.257-0.1 6.601s0.019 4.888 0.094 6.595c0.075 1.7 0.35 2.869 0.744 3.882 0.406 1.075 1.038 2.038 1.85 2.838 0.8 0.813 1.769 1.444 2.832 1.844 1.019 0.394 2.182 0.669 3.882 0.744 1.706 0.075 2.25 0.094 6.595 0.094s4.888-0.019 6.595-0.094c1.7-0.075 2.869-0.35 3.882-0.744 2.151-0.831 3.851-2.532 4.682-4.682 0.394-1.019 0.669-2.182 0.744-3.882 0.075-1.707 0.094-2.25 0.094-6.595s-0.006-4.888-0.081-6.595zM29.087 22.473c-0.069 1.563-0.331 2.407-0.55 2.969-0.538 1.394-1.644 2.5-3.038 3.038-0.563 0.219-1.413 0.481-2.969 0.55-1.688 0.075-2.194 0.094-6.464 0.094s-4.782-0.019-6.464-0.094c-1.563-0.069-2.407-0.331-2.969-0.55-0.694-0.256-1.325-0.663-1.838-1.194-0.531-0.519-0.938-1.144-1.194-1.838-0.219-0.563-0.481-1.413-0.55-2.969-0.075-1.688-0.094-2.194-0.094-6.464s0.019-4.782 0.094-6.464c0.069-1.563 0.331-2.407 0.55-2.969 0.256-0.694 0.663-1.325 1.2-1.838 0.519-0.531 1.144-0.938 1.838-1.194 0.563-0.219 1.413-0.481 2.969-0.55 1.688-0.075 2.194-0.094 6.464-0.094 4.276 0 4.782 0.019 6.464 0.094 1.563 0.069 2.407 0.331 2.969 0.55 0.694 0.256 1.325 0.662 1.838 1.194 0.531 0.519 0.938 1.144 1.194 1.838 0.219 0.563 0.481 1.413 0.55 2.969 0.075 1.688 0.094 2.194 0.094 6.464s-0.019 4.77-0.094 6.458z"></path>
<path d="M16.059 7.783c-4.538 0-8.22 3.682-8.22 8.22s3.682 8.22 8.22 8.22c4.538 0 8.22-3.682 8.22-8.22s-3.682-8.22-8.22-8.22zM16.059 21.335c-2.944 0-5.332-2.388-5.332-5.332s2.388-5.332 5.332-5.332c2.944 0 5.332 2.388 5.332 5.332s-2.388 5.332-5.332 5.332z"></path>
<path d="M26.524 7.458c0 1.060-0.859 1.919-1.919 1.919s-1.919-0.859-1.919-1.919c0-1.060 0.859-1.919 1.919-1.919s1.919 0.859 1.919 1.919z"></path>
</symbol>
<symbol id="list-arrow-down" viewBox="0 0 32 32">
<path  d="M21.724 11.057l-5.724 5.724-5.724-5.724-1.885 1.885 7.609 7.609 7.609-7.609-1.885-1.885z"></path>
</symbol>
<symbol id="list-arrow-up" viewBox="0 0 32 32">
<path  d="M8.391 19.057l1.885 1.885 5.724-5.724 5.724 5.724 1.885-1.885-7.609-7.609-7.609 7.609z"></path>
</symbol>
<symbol id="icon-caret-right" viewBox="0 0 32 32">
<path d="M12 25.333l10.667-9.333-10.667-9.333v18.667z"></path>
</symbol>
<symbol id="icon-hero-btn-right-arrow" viewBox="0 0 32 32">
<path fill="#fff" style="fill: var(--color1, #fff)" d="M7.381 29.181c0.216 0.112 0.458 0.164 0.701 0.149s0.477-0.096 0.677-0.234l17.333-12c0.177-0.123 0.322-0.287 0.422-0.477s0.152-0.403 0.152-0.619-0.052-0.428-0.152-0.619c-0.1-0.191-0.245-0.355-0.422-0.477l-17.333-12c-0.2-0.139-0.434-0.221-0.677-0.237s-0.486 0.036-0.702 0.149c-0.216 0.113-0.396 0.283-0.522 0.492s-0.192 0.448-0.191 0.691v24c-0 0.243 0.067 0.482 0.192 0.69s0.307 0.378 0.522 0.491zM9.333 6.545l13.657 9.455-13.657 9.455v-18.909z"></path>
</symbol>
</defs>
</svg>
